<svg xmlns="http://www.w3.org/2000/svg" xmlns:xlink="http://www.w3.org/1999/xlink" version="1.1" id="Layer_1" x="0px" y="0px" viewBox="0 0 100 100" enable-background="new 0 0 100 100" xml:space="preserve">
<g>
	<path fill="#B3B3B3" d="M79.6,77l-2.3,0L20,77C9,77,0,67.8,0,56.6c0-7,3.5-13.3,9.2-17C10.1,25.2,22,13.8,36.6,13.8   c9.9,0,19,5.4,23.9,13.8c0.4,0,0.7,0,1.1,0c6.7,0,12.9,3.3,16.7,8.7c0.5,0,1-0.1,1.4-0.1c11.2,0,20.3,9.1,20.3,20.4   S90.8,77,79.6,77z M22.3,71l57.3,0c7.9,0,14.3-6.4,14.3-14.4s-6.4-14.4-14.3-14.4c-0.8,0-1.6,0.1-2.5,0.2l-2.1,0.4L74,41   c-2.5-4.6-7.3-7.4-12.5-7.4c-0.7,0-1.4,0.1-2.3,0.2L57,34.2l-1-2c-3.5-7.5-11.2-12.3-19.4-12.3c-11.8,0-21.5,9.6-21.5,21.5l0,1.8   l-1.6,0.8C8.9,46.4,6,51.2,6,56.6c0,8,6.3,14.5,14,14.5L22.3,71z"/>
</g>
</svg>