<svg xmlns="http://www.w3.org/2000/svg" xmlns:xlink="http://www.w3.org/1999/xlink" version="1.1" id="Layer_1" x="0px" y="0px" viewBox="0 0 100 100" enable-background="new 0 0 100 100" xml:space="preserve">
<g>
	<path fill="#F7931E" d="M55.8,24c2.6-3.6,6.9-5.9,11.7-5.9c8,0,14.5,6.5,14.5,14.5c0,2-0.4,3.9-1.1,5.6c2.1,0.2,4,1.1,5.4,2.6   c1.1-2.5,1.7-5.3,1.7-8.2C88,21.2,78.8,12,67.5,12c-7.5,0-14.1,4.1-17.7,10.2C52,21.9,54.3,22.4,55.8,24z"/>
</g>
<polygon fill="#F7931E" points="64.6,10 67.5,0.2 70.4,10 "/>
<polygon fill="#F7931E" points="53.5,14.1 51.1,4.1 58.5,11.2 "/>
<polygon fill="#F7931E" points="90,29.6 99.8,32.5 90,35.4 "/>
<polygon fill="#F7931E" points="85.9,18.6 95.9,16.2 88.8,23.6 "/>
<polygon fill="#F7931E" points="76.4,11.2 83.9,4.2 81.5,14.1 "/>
<g>
	<path fill="#B3B3B3" d="M79.7,77l-2.3,0L20,77C9,77,0,67.8,0,56.6c0-7,3.5-13.3,9.2-17c0.9-14.3,12.9-25.7,27.4-25.7   c9.9,0,19,5.4,23.8,13.8c0.4,0,0.7,0,1.1,0c6.7,0,12.9,3.3,16.7,8.7c0.5,0,1-0.1,1.4-0.1c11.2,0,20.3,9.1,20.3,20.4   S90.9,77,79.7,77z M22.3,71l57.3,0C87.6,71,94,64.6,94,56.6s-6.4-14.4-14.3-14.4c-0.8,0-1.6,0.1-2.5,0.2l-2.1,0.4l-1-1.9   c-2.5-4.6-7.3-7.4-12.5-7.4c-0.7,0-1.4,0.1-2.3,0.2L57,34.2l-1-2c-3.5-7.5-11.2-12.3-19.4-12.3c-11.8,0-21.5,9.6-21.5,21.5l0,1.8   l-1.6,0.8C8.9,46.4,6,51.2,6,56.6c0,8,6.3,14.5,14,14.5L22.3,71z"/>
</g>
</svg>