<svg xmlns="http://www.w3.org/2000/svg" xmlns:xlink="http://www.w3.org/1999/xlink" version="1.1" id="Layer_1" x="0px" y="0px" viewBox="0 0 100 100" enable-background="new 0 0 100 100" xml:space="preserve">
<path fill="#808080" d="M90,61.8c-17.1,0-31-13.9-31-31c0-5.3,1.3-10.3,3.7-14.7C47.6,18.2,36,31.2,36,46.8c0,0.7,0,1.3,0.1,2  c1,0.4,1.9,1.1,2.7,2c1.2,1.4,3.8,2.8,6.5,4c2.9,1.4,5.9,2.5,8.7,4.1c6.8,3.9,11.1,10,9.4,18c0,0.2-0.1,0.4-0.1,0.6  c1.2,0.1,2.4,0.2,3.7,0.2c11.8,0,22-6.6,27.3-16.3C92.9,61.7,91.5,61.8,90,61.8z"/>
<path fill="#B3B3B3" d="M54.4,57.4C51.9,54,47.8,52,43.5,52c0,0-0.1,0-0.1,0c-3.3-5-9.2-8.6-15.5-8.6c-9.4,0-17.3,7.2-18.1,16.5  C6.2,62.4,4,66.6,4,71.1C4,78.7,10.1,85,17.5,85h37.3c7.6,0,13.7-6.2,13.7-13.8C68.5,63.5,62.2,57.1,54.4,57.4z M62.8,71.1  c0,4.4-3.6,8-7.9,8l-35.9,0l-1.4,0c-4.3,0-7.8-3.6-7.8-8c0-3,1.6-5.7,4.2-7l1.5-0.8l0-1.7c0-6.9,5.6-12.4,12.4-12.4  c4.8,0,9.2,2.8,11.3,7.1l0.9,2l2.1-0.3c0.5-0.1,0.9-0.1,1.3-0.1c2.9,0,5.6,1.6,7,4.1l1,1.8l2-0.4c0.5-0.1,0.9-0.1,1.4-0.1  C59.2,63.1,62.8,66.7,62.8,71.1z"/>
</svg>