<svg xmlns="http://www.w3.org/2000/svg" xmlns:xlink="http://www.w3.org/1999/xlink" version="1.1" id="Layer_1" x="0px" y="0px" viewBox="0 0 100 100" style="enable-background:new 0 0 100 100;" xml:space="preserve">
<metadata><?xpacket begin="&#xFEFF;" id="W5M0MpCehiHzreSzNTczkc9d"?>
<x:xmpmeta xmlns:x="adobe:ns:meta/" x:xmptk="Adobe XMP Core 5.6-c143 79.161210, 2017/08/11-10:28:36        ">
   <rdf:RDF xmlns:rdf="http://www.w3.org/1999/02/22-rdf-syntax-ns#">
      <rdf:Description rdf:about=""/>
   </rdf:RDF>
</x:xmpmeta>
                                                                                                    
                                                                                                    
                                                                                                    
                                                                                                    
                                                                                                    
                                                                                                    
                                                                                                    
                                                                                                    
                                                                                                    
                                                                                                    
                                                                                                    
                                                                                                    
                                                                                                    
                                                                                                    
                                                                                                    
                                                                                                    
                                                                                                    
                                                                                                    
                                                                                                    
                                                                                                    
                           
<?xpacket end="w"?></metadata>
<style type="text/css">
	.st0{fill:#B3B3B3;}
</style>
<g>
	<rect y="52" class="st0" width="89" height="4"/>
	<rect x="51" y="60" class="st0" width="20" height="4"/>
	<rect x="17" y="60" class="st0" width="20" height="4"/>
	<rect x="31" y="44" class="st0" width="17" height="4"/>
	<rect x="65" y="41" class="st0" width="4" height="4"/>
	<rect x="72" y="26" class="st0" width="4" height="4"/>
	<rect x="59" y="16" class="st0" width="4" height="4"/>
	<rect x="26" y="20" class="st0" width="4" height="4"/>
	<rect x="45" y="75" class="st0" width="4" height="4"/>
	<rect x="42" y="60" class="st0" width="4" height="4"/>
	<rect x="5" y="44" class="st0" width="12" height="4"/>
	<rect x="22" y="44" class="st0" width="4" height="4"/>
	<rect x="93" y="64" class="st0" width="4" height="4"/>
	<path class="st0" d="M88.5,32.8C82.2,32.8,77,38,77,44h4c0-4,3.4-7.2,7.5-7.2s7.2,3.5,7.2,7.6S93,52,88,52v4   c7,0,11.8-5.3,11.8-11.6S94.8,32.8,88.5,32.8z"/>
	<path class="st0" d="M47.5,24.8C41.2,24.8,36,30,36,36h4c0-4,3.4-7.2,7.5-7.2s7.2,3.5,7.2,7.6S52,44,47,44v4   c7,0,11.8-5.3,11.8-11.6S53.8,24.8,47.5,24.8z"/>
	<path class="st0" d="M71.5,83.2C65.2,83.2,60,78,60,72h4c0,4,3.4,7.2,7.5,7.2s7.2-3.5,7.2-7.6S76,64,71,64v-4   c7,0,11.8,5.3,11.8,11.6S77.8,83.2,71.5,83.2z"/>
</g>
</svg>