<svg xmlns="http://www.w3.org/2000/svg" xmlns:xlink="http://www.w3.org/1999/xlink" version="1.1" id="Layer_1" x="0px" y="0px" viewBox="0 0 100 100" enable-background="new 0 0 100 100" xml:space="preserve">
<path fill="#29ABE2" d="M49.2,91.3l8.7-25.2L40.3,86.2c-0.5,0.4-1,1-1.4,1.6c-1.5,2.6-0.6,6,2,7.6c2.6,1.5,6,0.6,7.6-2  C48.8,92.7,49.1,92,49.2,91.3z"/>
<path fill="#808080" d="M79.7,36.3c-0.5,0-1,0-1.4,0.1c-3.8-5.4-10-8.7-16.7-8.7c-0.4,0-0.7,0-1.1,0c-4.9-8.5-14-13.8-23.8-13.8  c-14.6,0-26.5,11.4-27.4,25.7C3.5,43.2,0,49.6,0,56.6C0,67.8,9,77,20,77l23.3,0l5.2-6l-26.2,0L20,71c-7.7,0-14-6.5-14-14.5  c0-5.3,2.9-10.2,7.5-12.7l1.6-0.8l0-1.8c0-11.8,9.6-21.5,21.5-21.5c8.3,0,15.9,4.8,19.4,12.3l1,2l2.2-0.4c0.9-0.1,1.6-0.2,2.3-0.2  c5.2,0,10,2.8,12.5,7.4l1,1.9l2.1-0.4c0.9-0.2,1.7-0.2,2.5-0.2c7.9,0,14.3,6.4,14.3,14.4S87.6,71,79.7,71H60.1l-2.1,6h19.3l2.3,0  c11.2,0,20.3-9.1,20.3-20.4S90.9,36.3,79.7,36.3z"/>
</svg>