<svg xmlns="http://www.w3.org/2000/svg" xmlns:xlink="http://www.w3.org/1999/xlink" version="1.1" id="Layer_1" x="0px" y="0px" viewBox="0 0 100 100" enable-background="new 0 0 100 100" xml:space="preserve">
<path fill="#B3B3B3" d="M100,45.1C99,45,97.5,45,96.2,45c-15,0-15.1,6-30.1,6c-15,0-15-6-30-6c-15,0-15,6-30,6c-2.3,0-4.3-0.2-6-0.4  v4C1.7,54.9,3.7,55,6,55c15,0,15-6,30-6c15,0,15,6,30,6c15,0,15.2-6,30.2-6c1.3,0,2.8,0.1,3.8,0.1V45.1z"/>
<path fill="#B3B3B3" d="M90,35.4C80.8,36.8,78.7,41,66.1,41c-15,0-15-6-30-6c-13.5,0-14.9,4.9-26,5.8v4c11.1-1,12.5-5.8,26-5.8  c15,0,15,6,30,6c12.6,0,14.7-4.2,24-5.6V35.4z"/>
<path fill="#B3B3B3" d="M90,55.4C80.8,56.8,78.7,61,66.1,61c-15,0-15-6-30-6c-13.5,0-14.9,4.9-26,5.8v4c11.1-1,12.5-5.8,26-5.8  c15,0,15,6,30,6c12.6,0,14.7-4.2,24-5.6V55.4z"/>
</svg>