<svg xmlns="http://www.w3.org/2000/svg" xmlns:xlink="http://www.w3.org/1999/xlink" version="1.1" id="Layer_1" x="0px" y="0px" viewBox="0 0 100 100" style="enable-background:new 0 0 100 100;" xml:space="preserve">
<metadata><?xpacket begin="&#xFEFF;" id="W5M0MpCehiHzreSzNTczkc9d"?>
<x:xmpmeta xmlns:x="adobe:ns:meta/" x:xmptk="Adobe XMP Core 5.6-c143 79.161210, 2017/08/11-10:28:36        ">
   <rdf:RDF xmlns:rdf="http://www.w3.org/1999/02/22-rdf-syntax-ns#">
      <rdf:Description rdf:about=""/>
   </rdf:RDF>
</x:xmpmeta>
                                                                                                                          
<?xpacket end="w"?></metadata>
<style type="text/css">
	.st0{fill:#B3B3B3;}
	.st1{fill:#808080;}
</style>
<path class="st0" d="M38.4,90.9L38.4,90.9c-1-0.4-1.6-1.5-1.2-2.5l9.1-26c0.4-1,1.5-1.6,2.5-1.2l0,0c1,0.4,1.6,1.5,1.2,2.5l-9.1,26  C40.6,90.8,39.4,91.3,38.4,90.9z"/>
<path class="st0" d="M25.4,95.9L25.4,95.9c-1-0.4-1.6-1.5-1.2-2.5l9.1-26c0.4-1,1.5-1.6,2.5-1.2l0,0c1,0.4,1.6,1.5,1.2,2.5l-9.1,26  C27.6,95.8,26.4,96.3,25.4,95.9z"/>
<path class="st0" d="M61.4,90.9L61.4,90.9c-1-0.4-1.6-1.5-1.2-2.5l9.1-26c0.4-1,1.5-1.6,2.5-1.2l0,0c1,0.4,1.6,1.5,1.2,2.5l-9.1,26  C63.6,90.8,62.4,91.3,61.4,90.9z"/>
<path class="st0" d="M48.4,95.9L48.4,95.9c-1-0.4-1.6-1.5-1.2-2.5l9.1-26c0.4-1,1.5-1.6,2.5-1.2l0,0c1,0.4,1.6,1.5,1.2,2.5l-9.1,26  C50.6,95.8,49.4,96.3,48.4,95.9z"/>
<g>
	<path class="st1" d="M79.6,36.3c-0.5,0-1,0-1.4,0.1c-3.8-5.4-10-8.7-16.7-8.7c-0.3,0-0.7,0-1.1,0c-4.9-8.5-14-13.8-23.9-13.8   C22,13.8,10.1,25.2,9.2,39.5C3.5,43.2,0,49.6,0,56.5C0,67.8,9,77,20,77h5.9l2.1-6h-5.7H20c-7.7,0-14-6.5-14-14.5   c0-5.3,2.9-10.2,7.5-12.7l1.6-0.8v-1.8c0-11.8,9.6-21.5,21.5-21.5c8.3,0,15.9,4.8,19.4,12.3l1,2l2.2-0.4c0.9-0.1,1.6-0.2,2.3-0.2   c5.2,0,10,2.8,12.5,7.4l1,1.9l2.1-0.4c0.9-0.2,1.7-0.2,2.5-0.2c7.9,0,14.3,6.4,14.3,14.4S87.5,71,79.6,71h-5.2l-2.1,6h4.9h2.3   c11.2,0,20.3-9.1,20.3-20.4S90.8,36.3,79.6,36.3z"/>
</g>
</svg>