<svg xmlns="http://www.w3.org/2000/svg" xmlns:xlink="http://www.w3.org/1999/xlink" version="1.1" id="Layer_1" x="0px" y="0px" viewBox="0 0 100 100" style="enable-background:new 0 0 100 100;" xml:space="preserve">
<metadata><?xpacket begin="&#xFEFF;" id="W5M0MpCehiHzreSzNTczkc9d"?>
<x:xmpmeta xmlns:x="adobe:ns:meta/" x:xmptk="Adobe XMP Core 5.6-c143 79.161210, 2017/08/11-10:28:36        ">
   <rdf:RDF xmlns:rdf="http://www.w3.org/1999/02/22-rdf-syntax-ns#">
      <rdf:Description rdf:about=""/>
   </rdf:RDF>
</x:xmpmeta>
                                                                                                                       
<?xpacket end="w"?></metadata>
<style type="text/css">
	.st0{fill:none;stroke:#CCCCCC;stroke-width:4;stroke-miterlimit:10;}
	.st1{fill:#808080;}
	.st2{fill:#29ABE2;}
	.st3{fill:#B3B3B3;}
</style>
<g>
	<path class="st0" d="M62.7,60.2"/>
	<path class="st1" d="M79.4,31.5c-0.5,0-1,0-1.4,0.1c-3.8-5.4-10-8.7-16.7-8.7c-0.4,0-0.7,0-1.1,0c-4.9-8.5-14-13.8-23.8-13.8   C21.8,9.1,9.9,20.5,9,34.8c-5.8,3.6-9.3,10-9.3,16.9c0,11.3,9,20.5,20,20.5h4l5.2-6h-7h-2.2c-7.7,0-14-6.5-14-14.5   c0-5.3,2.9-10.2,7.5-12.7l1.6-0.8v-1.8c0-11.8,9.6-21.5,21.5-21.5c8.3,0,15.9,4.8,19.4,12.3l1,2l2.2-0.4c0.9-0.1,1.6-0.2,2.3-0.2   c5.2,0,10,2.8,12.5,7.4l1,1.9l2.1-0.4c0.9-0.2,1.7-0.2,2.5-0.2c7.9,0,14.3,6.4,14.3,14.4s-6.3,14.5-14.2,14.5h-7.9l-2.1,6H77h2.3   c11.2,0,20.3-9.1,20.3-20.4S90.6,31.5,79.4,31.5z"/>
	<path class="st2" d="M35,86l8.7-25.2L26.1,80.9c-0.5,0.4-1,1-1.4,1.6c-1.5,2.6-0.6,6,2,7.6c2.6,1.5,6,0.6,7.6-2   C34.6,87.4,34.9,86.7,35,86z"/>
	<g>
		<path class="st3" d="M55.1,86.1L55.1,86.1c-1-0.4-1.6-1.5-1.2-2.5l9.1-26c0.4-1,1.5-1.6,2.5-1.2l0,0c1,0.4,1.6,1.5,1.2,2.5    l-9.1,26C57.3,86,56.1,86.5,55.1,86.1z"/>
		<path class="st3" d="M42.1,91.1L42.1,91.1c-1-0.4-1.6-1.5-1.2-2.5l9.1-26c0.4-1,1.5-1.6,2.5-1.2l0,0c1,0.4,1.6,1.5,1.2,2.5    l-9.1,26C44.3,91,43.1,91.5,42.1,91.1z"/>
	</g>
</g>
</svg>