<svg xmlns="http://www.w3.org/2000/svg" xmlns:xlink="http://www.w3.org/1999/xlink" version="1.1" id="Layer_1" x="0px" y="0px" viewBox="0 0 99.9 82.2" style="enable-background:new 0 0 99.9 82.2;" xml:space="preserve">
<style type="text/css">
	.st0{fill:#29ABE2;}
	.st1{fill:#808080;}
</style>
<title>Asset 2</title>
<metadata><?xpacket begin="&#xFEFF;" id="W5M0MpCehiHzreSzNTczkc9d"?>
<x:xmpmeta xmlns:x="adobe:ns:meta/" x:xmptk="Adobe XMP Core 5.6-c143 79.161210, 2017/08/11-10:28:36        ">
   <rdf:RDF xmlns:rdf="http://www.w3.org/1999/02/22-rdf-syntax-ns#">
      <rdf:Description xmlns:dc="http://purl.org/dc/elements/1.1/" rdf:about="">
         <dc:title>
            <rdf:Alt>
               <rdf:li xml:lang="x-default">Asset 2</rdf:li>
            </rdf:Alt>
         </dc:title>
      </rdf:Description>
   </rdf:RDF>
</x:xmpmeta>
                
<?xpacket end="w"?></metadata>
<g>
	<g>
		<path class="st0" d="M53.2,77.4l8.7-25.2L44.3,72.3c-0.5,0.5-1,1-1.4,1.6c-1.6,2.6-0.9,6,1.7,7.7c2.6,1.6,6,0.9,7.7-1.7    c0.1-0.1,0.1-0.2,0.2-0.3C52.8,78.8,53.1,78.1,53.2,77.4z"/>
		<path class="st0" d="M42.8,65.7l5.8-16.8L36.9,62.3c-0.4,0.3-0.7,0.7-0.9,1.1c-1,1.7-0.4,4,1.3,5c1.7,1,4,0.4,5-1.3    C42.6,66.7,42.8,66.2,42.8,65.7z"/>
	</g>
	<path class="st1" d="M79.7,22.4c-0.5,0-0.9,0-1.4,0.1c-3.8-5.4-10-8.7-16.7-8.7h-1.1C53,0.6,36.2-3.9,23.1,3.6   C15,8.2,9.9,16.5,9.3,25.7C3.5,29.3,0,35.7,0,42.6c0,11.3,9,20.5,20,20.5h11l5.2-6H20c-7.9-0.2-14.1-6.6-14-14.5   c0-5.3,2.9-10.2,7.5-12.7l1.6-0.8v-1.8c0-11.9,9.6-21.5,21.5-21.5c8.3,0,15.9,4.8,19.4,12.3l1,2l2.2-0.4c0.8-0.1,1.5-0.2,2.3-0.2   c5.2,0,10,2.8,12.5,7.4l1,1.9l2.1-0.4c0.8-0.2,1.7-0.2,2.5-0.2c8,0,14.5,6.4,14.5,14.4s-6.4,14.5-14.4,14.5H64.1l-2.1,6h17.6   c11.2,0,20.4-9.1,20.4-20.3C100,31.6,90.9,22.4,79.7,22.4z"/>
</g>
</svg>