<svg xmlns="http://www.w3.org/2000/svg" xmlns:xlink="http://www.w3.org/1999/xlink" version="1.1" id="Layer_1" x="0px" y="0px" viewBox="0 0 100 100" enable-background="new 0 0 100 100" xml:space="preserve">
<path fill="#B3B3B3" d="M37,99.5L37,99.5c-0.7,0-1.2-0.6-1.2-1.2V85.8c0-0.7,0.6-1.2,1.2-1.2l0,0c0.7,0,1.2,0.6,1.2,1.2v12.5  C38.2,98.9,37.7,99.5,37,99.5z"/>
<path fill="#B3B3B3" d="M42.3,97.3L42.3,97.3c-0.5,0.5-1.3,0.5-1.8,0l-8.8-8.8c-0.5-0.5-0.5-1.3,0-1.8l0,0c0.5-0.5,1.3-0.5,1.8,0  l8.8,8.8C42.8,96,42.8,96.8,42.3,97.3z"/>
<path fill="#B3B3B3" d="M31.7,97.3L31.7,97.3c-0.5-0.5-0.5-1.3,0-1.8l8.8-8.8c0.5-0.5,1.3-0.5,1.8,0h0c0.5,0.5,0.5,1.3,0,1.8  l-8.8,8.8C33,97.8,32.2,97.8,31.7,97.3z"/>
<path fill="#B3B3B3" d="M29.5,92L29.5,92c0-0.7,0.6-1.2,1.2-1.2h12.5c0.7,0,1.2,0.6,1.2,1.2l0,0c0,0.7-0.6,1.2-1.2,1.2H30.7  C30.1,93.2,29.5,92.7,29.5,92z"/>
<path fill="#B3B3B3" d="M50,85L50,85c-1.1,0-2-0.9-2-2V65c0-1.1,0.9-2,2-2h0c1.1,0,2,0.9,2,2v18C52,84.1,51.1,85,50,85z"/>
<path fill="#B3B3B3" d="M57.8,81.8L57.8,81.8c-0.8,0.8-2.1,0.8-2.8,0L42.2,69.1c-0.8-0.8-0.8-2.1,0-2.8h0c0.8-0.8,2.1-0.8,2.8,0  l12.7,12.7C58.6,79.7,58.6,81,57.8,81.8z"/>
<path fill="#B3B3B3" d="M39,74L39,74c0-1.1,0.9-2,2-2h18c1.1,0,2,0.9,2,2l0,0c0,1.1-0.9,2-2,2H41C39.9,76,39,75.1,39,74z"/>
<path fill="#B3B3B3" d="M42.2,81.8L42.2,81.8c-0.8-0.8-0.8-2.1,0-2.8l12.7-12.7c0.8-0.8,2.1-0.8,2.8,0h0c0.8,0.8,0.8,2.1,0,2.8  L45.1,81.8C44.3,82.6,43,82.6,42.2,81.8z"/>
<path fill="#808080" d="M79.7,36.3c-0.5,0-1,0-1.4,0.1c-3.8-5.4-10-8.7-16.7-8.7c-0.4,0-0.7,0-1.1,0c-4.9-8.5-14-13.8-23.8-13.8  c-14.6,0-26.5,11.4-27.4,25.7C3.5,43.2,0,49.6,0,56.5C0,67.8,9,77,20,77h16v-6H22.3L20,71c-7.7,0-14-6.5-14-14.5  c0-5.3,2.9-10.2,7.5-12.7l1.6-0.8l0-1.8c0-11.8,9.6-21.5,21.5-21.5c8.3,0,15.9,4.8,19.4,12.3l1,2l2.2-0.4c0.9-0.1,1.6-0.2,2.3-0.2  c5.2,0,10,2.8,12.5,7.4l1,1.9l2.1-0.4c0.9-0.2,1.7-0.2,2.5-0.2c7.9,0,14.3,6.4,14.3,14.4S87.6,71,79.7,71H64v6h13.3l2.3,0  c11.2,0,20.3-9.1,20.3-20.4S90.9,36.3,79.7,36.3z"/>
</svg>