<svg xmlns="http://www.w3.org/2000/svg" xmlns:xlink="http://www.w3.org/1999/xlink" version="1.1" id="Layer_1" x="0px" y="0px" viewBox="0 0 100 100" enable-background="new 0 0 100 100" xml:space="preserve">
<path fill="#B3B3B3" d="M31.6,79L31.6,79c-2.2,0-4-1.8-4-4v0c0-2.2,1.8-4,4-4h0c2.2,0,4,1.8,4,4v0C35.6,77.2,33.8,79,31.6,79z"/>
<path fill="#B3B3B3" d="M46.8,74L46.8,74c-2.2,0-4-1.8-4-4v0c0-2.2,1.8-4,4-4h0c2.2,0,4,1.8,4,4v0C50.8,72.2,49,74,46.8,74z"/>
<path fill="#B3B3B3" d="M43,90.1L43,90.1c-2.2,0-4-1.8-4-4v0c0-2.2,1.8-4,4-4h0c2.2,0,4,1.8,4,4v0C47,88.3,45.2,90.1,43,90.1z"/>
<g id="dby1r9.tif_3_">
	<g>
		<path fill="#F9C33D" d="M72.4,59.9c-0.2,0.3-0.3,0.6-0.5,0.9c-2.6,4-5.2,8.1-7.8,12.1c-0.2,0.3-0.4,0.6-0.6,1.1c2.9,0,5.7,0,8.7,0    c-6.8,8.8-13.4,17.4-20.1,26.1c-0.1,0-0.1-0.1-0.2-0.1c2.3-5.9,4.5-11.7,6.8-17.7c-2.5,0-4.9,0-7.4,0c2.6-7.6,5.2-15,7.7-22.3    C63.4,59.9,67.9,59.9,72.4,59.9z"/>
	</g>
</g>
<g>
	<path fill="#808080" d="M79.7,36.3c-0.5,0-1,0-1.4,0.1c-3.8-5.4-10-8.7-16.7-8.7c-0.4,0-0.7,0-1.1,0c-4.9-8.5-14-13.8-23.8-13.8   c-14.6,0-26.5,11.4-27.4,25.7C3.5,43.2,0,49.6,0,56.5C0,67.8,9,77,20,77h0l5.2-6h-3L20,71c-7.7,0-14-6.5-14-14.5   c0-5.3,2.9-10.2,7.5-12.7l1.6-0.8l0-1.8c0-11.8,9.6-21.5,21.5-21.5c8.3,0,15.9,4.8,19.4,12.3l1,2l2.2-0.4c0.9-0.1,1.6-0.2,2.3-0.2   c5.2,0,10,2.8,12.5,7.4l1,1.9l2.1-0.4c0.9-0.2,1.7-0.2,2.5-0.2c7.9,0,14.3,6.4,14.3,14.4S87.6,71,79.7,71h-1c-1.5,2-3.1,4-4.6,6   h3.3l2.3,0c11.2,0,20.3-9.1,20.3-20.4S90.9,36.3,79.7,36.3z"/>
</g>
</svg>