<svg xmlns="http://www.w3.org/2000/svg" xmlns:xlink="http://www.w3.org/1999/xlink" version="1.1" id="Layer_1" x="0px" y="0px" viewBox="0 0 100 100" enable-background="new 0 0 100 100" xml:space="preserve">
<g>
	<path fill="#F7931E" d="M50,19c-11.3,0-21.3,6.1-26.7,15.3c2.1-0.5,4.3,0.6,5.5,2.5C33.3,29.7,41.1,25,50,25c13.8,0,25,11.2,25,25   S63.8,75,50,75c-7.3,0-13.9-3.1-18.4-8.1c-0.8,0.4-1.8,0.7-3,0.5c-0.1,0-0.3-0.1-0.4-0.1c-0.3,0.1-0.6,0.1-0.9,0.1   c-1,0-2-0.1-3.1-0.2C29.8,75.5,39.3,81,50,81c17.1,0,31-13.9,31-31S67.1,19,50,19z"/>
</g>
<polygon fill="#F7931E" points="45.6,15 50,0 54.5,15 "/>
<polygon fill="#F7931E" points="28.7,21.9 25,6.7 36.4,17.5 "/>
<polygon fill="#F7931E" points="17.5,36.3 6.7,25 22,28.7 "/>
<polygon fill="#F7931E" points="36.4,82.6 25,93.3 28.7,78.1 "/>
<polygon fill="#F7931E" points="54.5,85 50,100 45.6,85 "/>
<polygon fill="#F7931E" points="71.4,78.1 75,93.3 63.7,82.5 "/>
<polygon fill="#F7931E" points="82.6,63.7 93.3,75 78.1,71.3 "/>
<polygon fill="#F7931E" points="85,45.6 100,50 85,54.4 "/>
<polygon fill="#F7931E" points="78.1,28.7 93.3,25 82.5,36.4 "/>
<polygon fill="#F7931E" points="63.7,17.5 75,6.7 71.4,21.9 "/>
<g>
	<path fill="#B3B3B3" stroke="#B3B3B3" stroke-width="2" stroke-miterlimit="10" d="M50.9,71.9l-1.5,0l-35.9,0   C6.6,71.9,1,66.1,1,59.1c0-4.4,2.2-8.3,5.7-10.7c0.6-9,8.1-16.1,17.2-16.1c6.2,0,11.9,3.4,14.9,8.7c0.2,0,0.4,0,0.7,0   c4.2,0,8.1,2.1,10.4,5.5c0.3,0,0.6,0,0.9,0c7,0,12.7,5.7,12.7,12.7S57.9,71.9,50.9,71.9z M15,68.1l35.9,0c4.9,0,8.9-4,8.9-9   s-4-9-8.9-9c-0.5,0-1,0-1.5,0.1L48,50.5l-0.6-1.2c-1.6-2.9-4.6-4.6-7.8-4.6c-0.4,0-0.9,0-1.4,0.1l-1.4,0.2l-0.6-1.3   c-2.2-4.7-7-7.7-12.2-7.7c-7.4,0-13.4,6-13.4,13.4l0,1.1l-1,0.5c-2.9,1.5-4.7,4.6-4.7,7.9c0,5,3.9,9,8.8,9L15,68.1z"/>
</g>
</svg>