<svg xmlns="http://www.w3.org/2000/svg" xmlns:xlink="http://www.w3.org/1999/xlink" version="1.1" id="Layer_1" x="0px" y="0px" viewBox="0 0 100 100" enable-background="new 0 0 100 100" xml:space="preserve">
<g>
	<path fill="#F7931E" d="M50,81C33,81,19,67.1,19,50C19,32.9,33,19,50,19c17.1,0,31,13.9,31,31C81,67.1,67.1,81,50,81z M50,25   c-13.8,0-25,11.2-25,25s11.2,25,25,25s25-11.2,25-25S63.8,25,50,25z"/>
</g>
<polygon fill="#F7931E" points="45.6,15 50,0 54.5,15 "/>
<polygon fill="#F7931E" points="28.7,21.9 25,6.7 36.4,17.5 "/>
<polygon fill="#F7931E" points="17.5,36.3 6.7,25 22,28.7 "/>
<polygon fill="#F7931E" points="15,54.4 0,50 15,45.6 "/>
<polygon fill="#F7931E" points="21.9,71.4 6.7,75 17.5,63.7 "/>
<polygon fill="#F7931E" points="36.4,82.6 25,93.3 28.7,78.1 "/>
<polygon fill="#F7931E" points="54.5,85 50,100 45.6,85 "/>
<polygon fill="#F7931E" points="71.4,78.1 75,93.3 63.7,82.5 "/>
<polygon fill="#F7931E" points="82.6,63.7 93.3,75 78.1,71.3 "/>
<polygon fill="#F7931E" points="85,45.6 100,50 85,54.4 "/>
<polygon fill="#F7931E" points="78.1,28.7 93.3,25 82.5,36.4 "/>
<polygon fill="#F7931E" points="63.7,17.5 75,6.7 71.4,21.9 "/>
</svg>