√<svg xmlns="http://www.w3.org/2000/svg" xmlns:xlink="http://www.w3.org/1999/xlink" version="1.1" id="Layer_1" x="0px" y="0px" viewBox="0 0 100 100" enable-background="new 0 0 100 100" xml:space="preserve">
<path fill="none" stroke="#CCCCCC" stroke-width="4" stroke-miterlimit="10" d="M80,65"/>
<g>
	<path fill="#808080" d="M79.7,36.3c-0.5,0-1,0-1.4,0.1c-3.8-5.4-10-8.7-16.7-8.7c-0.4,0-0.7,0-1.1,0c-4.9-8.5-14-13.8-23.8-13.8   c-14.6,0-26.5,11.4-27.4,25.7c-5.7,3.7-9.1,10.1-9.1,17C0.1,67.4,8,76.3,19,76.9v-6c-7-0.6-12.9-6.8-12.9-14.4   c0-5.3,2.9-10.2,7.5-12.7l1.6-0.8l0-1.8c0-11.8,9.6-21.5,21.5-21.5c8.3,0,15.9,4.8,19.4,12.3l1,2l2.2-0.4c0.9-0.1,1.6-0.2,2.3-0.2   c5.2,0,10,2.8,12.5,7.4l1,1.9l2.1-0.4c0.9-0.2,1.7-0.2,2.5-0.2c7.9,0,14.3,6.4,14.3,14.4c0,7.2-5,13.1-12,14.2v6.1   c10-1.1,18-9.8,18-20.2C100,45.4,90.9,36.3,79.7,36.3z"/>
</g>
<path fill="#B3B3B3" d="M68,85L68,85c-1.1,0-2-0.9-2-2V65c0-1.1,0.9-2,2-2l0,0c1.1,0,2,0.9,2,2v18C70,84.1,69.1,85,68,85z"/>
<path fill="#B3B3B3" d="M75.8,81.8L75.8,81.8c-0.8,0.8-2.1,0.8-2.8,0L60.2,69.1c-0.8-0.8-0.8-2.1,0-2.8h0c0.8-0.8,2.1-0.8,2.8,0  l12.7,12.7C76.6,79.7,76.6,81,75.8,81.8z"/>
<path fill="#B3B3B3" d="M57,74L57,74c0-1.1,0.9-2,2-2h18c1.1,0,2,0.9,2,2l0,0c0,1.1-0.9,2-2,2H59C57.9,76,57,75.1,57,74z"/>
<path fill="#B3B3B3" d="M60.2,81.8L60.2,81.8c-0.8-0.8-0.8-2.1,0-2.8l12.7-12.7c0.8-0.8,2.1-0.8,2.8,0l0,0c0.8,0.8,0.8,2.1,0,2.8  L63.1,81.8C62.3,82.6,61,82.6,60.2,81.8z"/>
<path fill="#B3B3B3" d="M85,92L85,92c-0.6,0-1-0.4-1-1V81c0-0.6,0.4-1,1-1l0,0c0.6,0,1,0.4,1,1v10C86,91.6,85.6,92,85,92z"/>
<path fill="#B3B3B3" d="M89.2,90.2L89.2,90.2c-0.4,0.4-1,0.4-1.4,0l-7.1-7.1c-0.4-0.4-0.4-1,0-1.4l0,0c0.4-0.4,1-0.4,1.4,0l7.1,7.1  C89.6,89.2,89.6,89.9,89.2,90.2z"/>
<path fill="#B3B3B3" d="M80.8,90.2L80.8,90.2c-0.4-0.4-0.4-1,0-1.4l7.1-7.1c0.4-0.4,1-0.4,1.4,0l0,0c0.4,0.4,0.4,1,0,1.4l-7.1,7.1  C81.8,90.6,81.1,90.6,80.8,90.2z"/>
<path fill="#B3B3B3" d="M79,86L79,86c0-0.6,0.4-1,1-1h10c0.6,0,1,0.4,1,1l0,0c0,0.6-0.4,1-1,1H80C79.4,87,79,86.6,79,86z"/>
<rect y="80" fill="#B3B3B3" width="51" height="4"/>
<path fill="#B3B3B3" d="M50,80v4c4,0,5.8,2.5,5.8,5.5s-2.3,5.8-5.4,5.8S45,93,45,90h-4c0,5,4.3,9.2,9.5,9.2s9.2-4.4,9.2-9.6  S56,80,50,80z"/>
<rect x="23" y="72" fill="#B3B3B3" width="20" height="4"/>
<path fill="#B3B3B3" d="M42,76v-4c4,0,5.8-2.5,5.8-5.5s-2.3-5.2-5.3-5.2S37.2,64,37.2,67h-4c0-5,4.3-9.8,9.5-9.8s9.2,4.1,9.2,9.4  S48,76,42,76z"/>
</svg>